<svg preserveAspectRatio="none" overflow="visible" style="display: block;" width="14.6667" height="14.6667" viewBox="0 0 14.6667 14.6667" fill="none" xmlns="http://www.w3.org/2000/svg">
<g id="ic">
<path d="M7.26267 7.1165C8.40245 7.11412 9.32516 6.19335 9.32518 5.05832C9.32695 4.50965 9.10797 3.98313 8.71715 3.59638C8.32634 3.20964 7.79626 2.99488 7.24531 3.00009C6.10556 3.00725 5.18676 3.9319 5.19154 5.06692C5.19633 6.20194 6.1229 7.11887 7.26267 7.1165Z" fill="#131318"/>
<path d="M11.3333 10.9798C10.3713 9.67974 8.8659 8.88831 7.24531 8.83065C5.71773 8.87784 4.2878 9.58983 3.33333 10.7785C4.32111 11.9401 5.75997 12.6265 7.28803 12.665C8.81608 12.7034 10.2879 12.0903 11.3333 10.9798Z" fill="#131318"/>
<path fill-rule="evenodd" clip-rule="evenodd" d="M7.33333 0C3.28325 0 0 3.28325 0 7.33333C0 11.3834 3.28325 14.6667 7.33333 14.6667C11.3834 14.6667 14.6667 11.3834 14.6667 7.33333C14.6667 3.28325 11.3834 0 7.33333 0ZM1.33333 7.33333C1.33333 4.01962 4.01962 1.33333 7.33333 1.33333C10.647 1.33333 13.3333 4.01962 13.3333 7.33333C13.3333 10.647 10.647 13.3333 7.33333 13.3333C4.01962 13.3333 1.33333 10.647 1.33333 7.33333Z" fill="#131318"/>
</g>
</svg>
