<svg preserveAspectRatio="none" overflow="visible" style="display: block;" width="16" height="16" viewBox="0 0 16 16" fill="none" xmlns="http://www.w3.org/2000/svg">
<g id="refresh">
<g id="ic">
<path d="M8.86672 5.27037C8.87989 5.60502 9.14268 5.8732 9.47052 5.88654H9.52591L12.6829 5.61414C13.2011 5.54529 13.5816 5.08319 13.559 4.55022L13.3273 1.29678C13.3229 1.05918 13.1903 0.843499 12.9826 0.736065C12.7749 0.628631 12.5261 0.646991 12.3358 0.783796C12.1454 0.920602 12.0446 1.1535 12.0736 1.3893L12.2047 3.23054C10.2691 1.62958 7.56549 1.23481 5.21965 2.33524C2.37354 3.67035 0.820572 6.84685 1.48652 9.97113C2.15246 13.0954 4.85798 15.3261 7.99022 15.3333C11.6736 15.3333 14.6611 12.2883 14.6667 8.52836C14.6667 8.17353 14.3849 7.88589 14.0373 7.88589C13.6897 7.88589 13.4079 8.17353 13.4079 8.52836C13.4051 11.5785 10.9816 14.0493 7.99358 14.0484C5.00557 14.0475 2.58353 11.5751 2.58261 8.52493C2.58168 5.47479 5.00221 3.00087 7.99022 2.99803C9.34648 2.98862 10.642 3.50341 11.6286 4.41658L9.42017 4.60676C9.09444 4.64689 8.85355 4.93572 8.86672 5.27037Z" fill="black"/>
<path d="M8.86672 5.27037C8.87989 5.60502 9.14268 5.8732 9.47052 5.88654H9.52591L12.6829 5.61414C13.2011 5.54529 13.5816 5.08319 13.559 4.55022L13.3273 1.29678C13.3229 1.05918 13.1903 0.843499 12.9826 0.736065C12.7749 0.628631 12.5261 0.646991 12.3358 0.783796C12.1454 0.920602 12.0446 1.1535 12.0736 1.3893L12.2047 3.23054C10.2691 1.62958 7.56549 1.23481 5.21965 2.33524C2.37354 3.67035 0.820572 6.84685 1.48652 9.97113C2.15246 13.0954 4.85798 15.3261 7.99022 15.3333C11.6736 15.3333 14.6611 12.2883 14.6667 8.52836C14.6667 8.17353 14.3849 7.88589 14.0373 7.88589C13.6897 7.88589 13.4079 8.17353 13.4079 8.52836C13.4051 11.5785 10.9816 14.0493 7.99358 14.0484C5.00557 14.0475 2.58353 11.5751 2.58261 8.52493C2.58168 5.47479 5.00221 3.00087 7.99022 2.99803C9.34648 2.98862 10.642 3.50341 11.6286 4.41658L9.42017 4.60676C9.09444 4.64689 8.85355 4.93572 8.86672 5.27037Z" fill="black"/>
</g>
</g>
</svg>
